<svg xmlns="http://www.w3.org/2000/svg" width="760" height="620" viewBox="0 0 760 620" role="img" aria-labelledby="title desc">
  <title id="title">Codex 增加参考资料示意图</title>
  <desc id="desc">展示点击左下角加号后选择 Files and folders 添加图片或文件。</desc>
  <defs><filter id="shadow" x="-20%" y="-20%" width="140%" height="140%"><feDropShadow dx="0" dy="16" stdDeviation="16" flood-color="#2f1d23" flood-opacity="0.12"/></filter></defs>
  <rect width="760" height="620" rx="26" fill="#fff8f9"/>
  <g font-family="Arial, Microsoft YaHei, sans-serif">
    <rect x="78" y="30" width="650" height="420" rx="18" fill="#fff" stroke="#e6e2e4" filter="url(#shadow)"/>
    <text x="102" y="66" font-size="18" fill="#8b8f96">Add</text>
    <rect x="96" y="74" width="210" height="48" rx="3" fill="none" stroke="#ff4f67" stroke-width="6"/>
    <rect x="100" y="82" width="600" height="42" fill="#f0f0f0"/>
    <text x="120" y="110" font-size="22" fill="#15191d">📎  Files and folders</text>
    <text x="120" y="158" font-size="20" fill="#60747c">◎  目标</text><text x="224" y="158" font-size="20" fill="#a5a5a5">设置 Codex 将持续努力实现的目标</text>
    <text x="120" y="206" font-size="20" fill="#60747c">☷  计划模式</text><text x="260" y="206" font-size="20" fill="#a5a5a5">开启计划模式</text>
    <text x="102" y="254" font-size="20" fill="#8b8f96">插件</text>
    <text x="120" y="306" font-size="20" fill="#4f6fd8">▣</text><text x="154" y="306" font-size="20" fill="#60747c">Documents</text><text x="286" y="306" font-size="20" fill="#a5a5a5">Create and edit document artifacts</text>
    <text x="120" y="354" font-size="20" fill="#e45b5b">▣</text><text x="154" y="354" font-size="20" fill="#60747c">PDF</text><text x="220" y="354" font-size="20" fill="#a5a5a5">Read, create, and verify PDF files</text>
    <text x="120" y="402" font-size="20" fill="#45a85a">▣</text><text x="154" y="402" font-size="20" fill="#60747c">Spreadsheets</text><text x="304" y="402" font-size="20" fill="#a5a5a5">Create and edit spreadsheet files</text>
    <rect x="78" y="466" width="650" height="96" rx="18" fill="#fff" stroke="#e6e2e4" filter="url(#shadow)"/>
    <text x="96" y="504" font-size="22" fill="#15191d">需求后续变更</text>
    <rect x="98" y="538" width="58" height="58" rx="3" fill="none" stroke="#ff4f67" stroke-width="6"/>
    <circle cx="126" cy="566" r="22" fill="#f0f0f0"/><text x="114" y="576" font-size="32" fill="#8b8f96">＋</text>
    <text x="176" y="574" font-size="20" fill="#8b8f96">✋ 请求批准⌄</text>
    <rect x="0" y="520" width="214" height="40" rx="14" fill="#fff" stroke="#e6e2e4"/>
    <text x="14" y="548" font-size="18" fill="#15191d">Add files and more</text><rect x="172" y="528" width="32" height="24" rx="12" fill="#e9e9e9"/><text x="184" y="546" font-size="18" fill="#15191d">@</text>
  </g>
</svg>