<svg xmlns="http://www.w3.org/2000/svg" width="560" height="720" viewBox="0 0 560 720" role="img" aria-labelledby="title desc">
  <title id="title">Codex 剩余额度查看示意图</title>
  <desc id="desc">展示在左下角设置菜单里查看剩余用量。</desc>
  <defs><linearGradient id="bg" x1="0" y1="0" x2="1" y2="1"><stop offset="0" stop-color="#e6fbff"/><stop offset="1" stop-color="#f4ffd8"/></linearGradient><filter id="shadow" x="-20%" y="-20%" width="140%" height="140%"><feDropShadow dx="0" dy="14" stdDeviation="14" flood-color="#2f1d23" flood-opacity="0.12"/></filter></defs>
  <rect width="560" height="720" rx="24" fill="#fff8f9"/>
  <rect x="20" y="18" width="500" height="682" rx="18" fill="url(#bg)"/>
  <g font-family="Arial, Microsoft YaHei, sans-serif" fill="#233746">
    <text x="52" y="52" font-size="24">CodeX Space</text>
    <rect x="22" y="92" width="486" height="520" rx="18" fill="#fff" stroke="#dfe5e1" filter="url(#shadow)"/>
    <text x="64" y="128" font-size="20" fill="#8b8f96">◎  neusayallan@gmail.com</text>
    <text x="64" y="178" font-size="22" fill="#8b8f96">⚙  个人帐户</text>
    <line x1="52" y1="206" x2="470" y2="206" stroke="#e8e8e8"/>
    <text x="64" y="254" font-size="22">◎  个人资料</text>
    <text x="64" y="306" font-size="22">⚙  设置</text><text x="414" y="306" font-size="20" fill="#8b8f96">Ctrl+,</text>
    <text x="64" y="358" font-size="22">✈  邀请好友</text>
    <rect x="46" y="384" width="428" height="154" rx="3" fill="none" stroke="#ff4f67" stroke-width="7"/>
    <text x="64" y="430" font-size="22">◒  剩余用量</text><text x="442" y="430" font-size="22" fill="#8b8f96">⌄</text>
    <text x="90" y="482" font-size="22" font-weight="700">5 小时</text><text x="334" y="482" font-size="21" fill="#8b8f96">26%</text><text x="390" y="482" font-size="21" fill="#8b8f96">09:52</text>
    <text x="90" y="528" font-size="22" font-weight="700">1 周</text><text x="334" y="528" font-size="21" fill="#8b8f96">82%</text><text x="390" y="528" font-size="21" fill="#8b8f96">6月30日</text>
    <text x="64" y="568" font-size="22">升级至 Pro</text><text x="444" y="568" font-size="22">↗</text>
    <rect x="48" y="586" width="440" height="44" rx="12" fill="#f0f0f0"/><text x="64" y="616" font-size="22">了解更多</text><text x="444" y="616" font-size="22" fill="#8b8f96">↗</text>
    <text x="64" y="666" font-size="22">↪  退出登录</text>
    <rect x="44" y="644" width="118" height="62" rx="2" fill="none" stroke="#ff4f67" stroke-width="7"/>
    <text x="60" y="684" font-size="22">⚙  设置</text>
  </g>
</svg>